<svg id="SvgjsSvg1001" width="288" height="288" xmlns="http://www.w3.org/2000/svg" version="1.1" xmlns:xlink="http://www.w3.org/1999/xlink" xmlns:svgjs="http://svgjs.com/svgjs"><defs id="SvgjsDefs1002"></defs><g id="SvgjsG1008" transform="matrix(1,0,0,1,0,0)"><svg xmlns="http://www.w3.org/2000/svg" width="288" height="288" viewBox="0 0 8.467 8.467"><g transform="translate(264.73 -166.15) scale(.26454)" fill="#21e6c1" class="color000 svgShape"><path d="m -976.13281,632.75586 a 0.50005,0.50005 0 0 0 -0.13281,0.0156 l -6.76172,1.8125 a 0.50005,0.50005 0 0 0 -0.35352,0.61133 l 1.94141,7.2461 c 0.58656,2.18909 1.44181,4.07764 2.38867,5.40234 0.47343,0.66235 0.96692,1.18629 1.49414,1.5332 0.52722,0.34692 1.12312,0.52299 1.69726,0.36914 l 0.9668,-0.25976 c 0.57415,-0.15385 1.00203,-0.60197 1.28516,-1.16602 0.28312,-0.56404 0.44852,-1.26584 0.52734,-2.07617 0.15765,-1.62065 -0.0462,-3.68591 -0.63281,-5.875 l -1.94141,-7.24414 a 0.50005,0.50005 0 0 0 -0.47851,-0.36914 z m -0.35742,1.11133 1.8125,6.76172 c 0.56052,2.09188 0.7449,4.06408 0.60351,5.51757 -0.0707,0.72675 -0.22602,1.32276 -0.42773,1.72461 -0.20172,0.40186 -0.42186,0.5872 -0.65039,0.64844 l -0.9668,0.25977 c -0.22854,0.0612 -0.51111,0.009 -0.88672,-0.23828 -0.37561,-0.24716 -0.80782,-0.68527 -1.23242,-1.2793 -0.8492,-1.18807 -1.67581,-2.98819 -2.23633,-5.08008 l -1.8125,-6.76172 z" color="#000" font-family="sans-serif" font-weight="400" overflow="visible" style="line-height:normal;font-variant-ligatures:normal;font-variant-position:normal;font-variant-caps:normal;font-variant-numeric:normal;font-variant-alternates:normal;font-feature-settings:normal;text-indent:0;text-align:start;text-decoration-line:none;text-decoration-style:solid;text-decoration-color:#000;text-transform:none;text-orientation:mixed;shape-padding:0;isolation:auto;mix-blend-mode:normal" fill="#21e6c1" class="color000 svgShape"></path><path d="M-975.02344 649.00391l-.96484.25781 2.58789 9.66016.96484-.25977zM-974.32422 640.01562l-6.76172 1.8125.25782.9668 6.76171-1.8125z" color="#000" font-family="sans-serif" font-weight="400" overflow="visible" style="line-height:normal;font-variant-ligatures:normal;font-variant-position:normal;font-variant-caps:normal;font-variant-numeric:normal;font-variant-alternates:normal;font-feature-settings:normal;text-indent:0;text-align:start;text-decoration-line:none;text-decoration-style:solid;text-decoration-color:#000;text-transform:none;text-orientation:mixed;shape-padding:0;isolation:auto;mix-blend-mode:normal" fill="#21e6c1" class="color000 svgShape"></path><path d="M-970.02344 657.51562a.50005.50005 0 0 0-.13281.0195l-5.78125 1.54882a.50005.50005 0 1 0 .25781.96485l5.78321-1.54883a.50005.50005 0 0 0-.12696-.98438zM-991.67969 632.75586a.50005.50005 0 0 0-.46289.36914l-1.9414 7.24414c-.58657 2.18909-.79047 4.25435-.63282 5.875.0788.81033.24617 1.51213.5293 2.07617.28313.56405.71101 1.01218 1.28516 1.16602l.96484.25976c.57415.15385 1.17005-.0222 1.69727-.36914.52721-.34691 1.02266-.87085 1.49609-1.5332.94685-1.3247 1.80015-3.21325 2.38672-5.40234l1.9414-7.2461a.50005.50005 0 0 0-.35351-.61133l-6.76172-1.8125a.50005.50005 0 0 0-.14844-.0156zm.37305 1.11133l5.79687 1.55273-1.8125 6.76172c-.56052 2.09189-1.38713 3.89201-2.23632 5.08008-.4246.59403-.85681 1.03214-1.23243 1.2793-.37561.24715-.65818.29951-.88671.23828l-.9668-.25977c-.22854-.0612-.44868-.24658-.65039-.64844-.20172-.40185-.35704-.99786-.42774-1.72461-.14139-1.45349.0449-3.42569.60547-5.51757z" color="#000" font-family="sans-serif" font-weight="400" overflow="visible" style="line-height:normal;font-variant-ligatures:normal;font-variant-position:normal;font-variant-caps:normal;font-variant-numeric:normal;font-variant-alternates:normal;font-feature-settings:normal;text-indent:0;text-align:start;text-decoration-line:none;text-decoration-style:solid;text-decoration-color:#000;text-transform:none;text-orientation:mixed;shape-padding:0;isolation:auto;mix-blend-mode:normal" fill="#21e6c1" class="color000 svgShape"></path><path d="M-992.77344 649.00391l-2.58789 9.6582.96485.25977 2.58789-9.66016zM-993.4707 640.01562l-.25977.9668 6.76172 1.8125.25781-.9668z" color="#000" font-family="sans-serif" font-weight="400" overflow="visible" style="line-height:normal;font-variant-ligatures:normal;font-variant-position:normal;font-variant-caps:normal;font-variant-numeric:normal;font-variant-alternates:normal;font-feature-settings:normal;text-indent:0;text-align:start;text-decoration-line:none;text-decoration-style:solid;text-decoration-color:#000;text-transform:none;text-orientation:mixed;shape-padding:0;isolation:auto;mix-blend-mode:normal" fill="#21e6c1" class="color000 svgShape"></path><path d="M-997.78906 657.51562a.50005.50005 0 0 0-.10938.98438l5.78125 1.54883a.50005.50005 0 1 0 .25781-.96485l-5.78124-1.54882a.50005.50005 0 0 0-.14844-.0195zM-986.39844 628.06836c-.8225 0-1.5.67749-1.5 1.5 0 .8225.6775 1.5 1.5 1.5.82251 0 1.5-.6775 1.5-1.5 0-.82251-.67749-1.5-1.5-1.5zm0 1c.28207 0 .5.21793.5.5 0 .28206-.21793.5-.5.5-.28206 0-.5-.21794-.5-.5 0-.28207.21794-.5.5-.5zM-981.39844 629.56836c-.8225 0-1.5.67749-1.5 1.5 0 .8225.6775 1.5 1.5 1.5.82251 0 1.5-.6775 1.5-1.5 0-.82251-.67749-1.5-1.5-1.5zm0 1c.28207 0 .5.21793.5.5 0 .28206-.21793.5-.5.5-.28206 0-.5-.21794-.5-.5 0-.28207.21794-.5.5-.5zM-997.90625 628.06836a.50005.50005 0 0 0-.49219.50781v.48633a.50005.50005 0 1 0 1 0v-.48633a.50005.50005 0 0 0-.50781-.50781zM-997.90625 630.56836a.50005.50005 0 0 0-.49219.50781v.48633a.50005.50005 0 1 0 1 0v-.48633a.50005.50005 0 0 0-.50781-.50781zM-996.89062 629.56836a.50005.50005 0 1 0 0 1h.48632a.50005.50005 0 1 0 0-1zM-999.39062 629.56836a.50005.50005 0 1 0 0 1h.48632a.50005.50005 0 1 0 0-1z" color="#000" font-family="sans-serif" font-weight="400" overflow="visible" style="line-height:normal;font-variant-ligatures:normal;font-variant-position:normal;font-variant-caps:normal;font-variant-numeric:normal;font-variant-alternates:normal;font-feature-settings:normal;text-indent:0;text-align:start;text-decoration-line:none;text-decoration-style:solid;text-decoration-color:#000;text-transform:none;text-orientation:mixed;shape-padding:0;isolation:auto;mix-blend-mode:normal" fill="#21e6c1" class="color000 svgShape"></path><path d="M-998.89807 633.57562a.5.5 0 0 1-.5.5.5.5 0 0 1-.5-.5.5.5 0 0 1 .5-.5.5.5 0 0 1 .5.5zM-997.40497 636.56879a.5.5 0 0 1-.5.5.5.5 0 0 1-.5-.5.5.5 0 0 1 .5-.5.5.5 0 0 1 .5.5z" fill="#21e6c1" class="color000 svgShape"></path><path d="M-983.47461 649.08984a.50005.50005 0 0 0-.49219.50782v.48632a.50005.50005 0 1 0 1 0v-.48632a.50005.50005 0 0 0-.50781-.50782zM-983.47461 651.58984a.50005.50005 0 0 0-.49219.50782v.48632a.50005.50005 0 1 0 1 0v-.48632a.50005.50005 0 0 0-.50781-.50782zM-982.46094 650.58984a.50005.50005 0 1 0 0 1h.48633a.50005.50005 0 1 0 0-1zM-984.96094 650.58984a.50005.50005 0 1 0 0 1h.48633a.50005.50005 0 1 0 0-1z" color="#000" font-family="sans-serif" font-weight="400" overflow="visible" style="line-height:normal;font-variant-ligatures:normal;font-variant-position:normal;font-variant-caps:normal;font-variant-numeric:normal;font-variant-alternates:normal;font-feature-settings:normal;text-indent:0;text-align:start;text-decoration-line:none;text-decoration-style:solid;text-decoration-color:#000;text-transform:none;text-orientation:mixed;shape-padding:0;isolation:auto;mix-blend-mode:normal" fill="#21e6c1" class="color000 svgShape"></path><path d="M-980.96771 654.59735a.5.5 0 0 1-.5.5.5.5 0 0 1-.5-.5.5.5 0 0 1 .5-.5.5.5 0 0 1 .5.5zM-971.47461 631.09058a.5.5 0 0 1-.5.5.5.5 0 0 1-.5-.5.5.5 0 0 1 .5-.5.5.5 0 0 1 .5.5zM-970.47461 638.09052a.5.5 0 0 1-.5.5.5.5 0 0 1-.5-.5.5.5 0 0 1 .5-.5.5.5 0 0 1 .5.5zM-984.47461 647.09052a.5.5 0 0 1-.5.5.5.5 0 0 1-.5-.5.5.5 0 0 1 .5-.5.5.5 0 0 1 .5.5z" fill="#21e6c1" class="color000 svgShape"></path></g></svg></g></svg>