<svg id="SvgjsSvg1001" width="288" height="288" xmlns="http://www.w3.org/2000/svg" version="1.1" xmlns:xlink="http://www.w3.org/1999/xlink" xmlns:svgjs="http://svgjs.com/svgjs"><defs id="SvgjsDefs1002"></defs><g id="SvgjsG1008" transform="matrix(1,0,0,1,0,0)"><svg xmlns="http://www.w3.org/2000/svg" viewBox="0 0 29 29" width="288" height="288"><path d="M14.638 27c-6.893 0-12.5-5.607-12.5-12.5S7.745 2 14.638 2s12.5 5.607 12.5 12.5S21.53 27 14.638 27zm0-23c-5.79 0-10.5 4.71-10.5 10.5S8.848 25 14.638 25s10.5-4.71 10.5-10.5S20.427 4 14.638 4zm-.08 11.42h-6.42a1 1 0 1 1 0-2h5.42V6a1 1 0 1 1 2 0v8.42a1 1 0 0 1-1 1z" fill="#21e6c1" class="color000 svgShape"></path></svg></g></svg>